<?xml version="1.0" encoding="UTF-8" standalone="no"?>
<svg
   xmlns:dc="http://purl.org/dc/elements/1.1/"
   xmlns:cc="http://creativecommons.org/ns#"
   xmlns:rdf="http://www.w3.org/1999/02/22-rdf-syntax-ns#"
   xmlns:svg="http://www.w3.org/2000/svg"
   xmlns="http://www.w3.org/2000/svg"
   xmlns:sodipodi="http://sodipodi.sourceforge.net/DTD/sodipodi-0.dtd"
   xmlns:inkscape="http://www.inkscape.org/namespaces/inkscape"
   id="Layer_1"
   data-name="Layer 1"
   viewBox="0 0 750 500"
   version="1.1"
   sodipodi:docname="alinea-04.svg"
   width="750"
   height="500"
   inkscape:version="0.92.3 (2405546, 2018-03-11)">
  <metadata
     id="metadata31">
    <rdf:RDF>
      <cc:Work
         rdf:about="">
        <dc:format>image/svg+xml</dc:format>
        <dc:type
           rdf:resource="http://purl.org/dc/dcmitype/StillImage" />
        <dc:title>alinea</dc:title>
      </cc:Work>
    </rdf:RDF>
  </metadata>
  <sodipodi:namedview
     pagecolor="#ffffff"
     bordercolor="#666666"
     borderopacity="1"
     objecttolerance="10"
     gridtolerance="10"
     guidetolerance="10"
     inkscape:pageopacity="0"
     inkscape:pageshadow="2"
     inkscape:window-width="640"
     inkscape:window-height="480"
     id="namedview29"
     showgrid="false"
     inkscape:zoom="0.295"
     inkscape:cx="315.67797"
     inkscape:cy="250"
     inkscape:window-x="0"
     inkscape:window-y="30"
     inkscape:window-maximized="0"
     inkscape:current-layer="Layer_1" />
  <defs
     id="defs4">
    <style
       id="style2">.cls-1{fill:#f0e6d4;}.cls-2{fill:#ac358c;}</style>
  </defs>
  <title
     id="title6">alinea</title>
  <rect
     class="cls-1"
     x="0"
     y="0"
     width="750"
     height="500"
     rx="30"
     id="rect8"
     style="fill:#f0e6d4" />
  <path
     class="cls-2"
     d="M 215.7,217.85 V 323.61 H 188 v -53 a 28.17,28.17 0 0 0 -2.32,-11.45 29.77,29.77 0 0 0 -16,-15.59 29.3,29.3 0 0 0 -11.32,-2.23 27.88,27.88 0 0 0 -11.36,2.33 32.3,32.3 0 0 0 -9.41,6.26 28,28 0 0 0 -6.46,9.34 29,29 0 0 0 -2.32,11.57 27.67,27.67 0 0 0 2.32,11.25 29.51,29.51 0 0 0 6.46,9.34 31.29,31.29 0 0 0 9.41,6.37 27.87,27.87 0 0 0 11.42,2.33 24.85,24.85 0 0 0 11.21,-2.32 h 0.21 v 0.42 l 10.58,18.83 -0.21,0.21 q -10.36,8 -25.6,8 a 53.47,53.47 0 0 1 -21.15,-4.23 54.2,54.2 0 0 1 -17.34,-11.64 55.47,55.47 0 0 1 -11.74,-17.34 54.24,54.24 0 0 1 0,-42.52 55.37,55.37 0 0 1 29.08,-29.08 52.36,52.36 0 0 1 21.15,-4.34 42.8,42.8 0 0 1 19.25,4.09 40.21,40.21 0 0 1 14.14,11.89 v -14.25 z"
     id="path10"
     inkscape:connector-curvature="0"
     style="fill:#ac358c" />
  <path
     class="cls-2"
     d="m 258.64,175.55 v 148.06 h -28.13 l 0.21,-148.06 z"
     id="path12"
     inkscape:connector-curvature="0"
     style="fill:#ac358c" />
  <path
     class="cls-2"
     d="m 270.81,175.55 h 28.13 v 24.75 h -28.13 z m 0,148.06 V 217.85 h 28.13 v 105.76 z"
     id="path14"
     inkscape:connector-curvature="0"
     style="fill:#ac358c" />
  <path
     class="cls-2"
     d="m 404.56,246.58 a 40.65,40.65 0 0 0 -7.61,-16.5 q -10.79,-14 -36.17,-14 a 41.89,41.89 0 0 0 -20.28,4.81 v -3.08 h -28.77 v 105.8 h 28.77 v -84.33 l 2.93,5.18 0.22,0.21 v -0.21 a 30.36,30.36 0 0 1 13.74,-3.17 q 7.83,0 12.06,2.33 a 13.93,13.93 0 0 1 6.13,6.47 26.54,26.54 0 0 1 2.23,9.54 q 0.31,5.42 0.31,11.35 v 52.59 h 28.77 v -52.46 a 109.69,109.69 0 0 0 -2.33,-24.53 z"
     id="path16"
     inkscape:connector-curvature="0"
     style="fill:#ac358c" />
  <path
     class="cls-2"
     d="m 471.23,216.16 a 52.36,52.36 0 0 1 21.15,4.34 55.37,55.37 0 0 1 29.08,29.08 52.87,52.87 0 0 1 4.34,21.36 54.82,54.82 0 0 1 -1.27,11.85 l -0.21,0.42 h -53.73 l -13.54,-21.57 h 40.19 a 31.53,31.53 0 0 0 -9.83,-14.6 24.54,24.54 0 0 0 -16.18,-5.71 25.74,25.74 0 0 0 -10.79,2.32 27.94,27.94 0 0 0 -8.78,6.22 28.4,28.4 0 0 0 -5.82,9.27 31.69,31.69 0 0 0 -2.11,11.7 28.83,28.83 0 0 0 1.9,10 30.71,30.71 0 0 0 5.5,9.38 31.71,31.71 0 0 0 8.67,7.06 22.94,22.94 0 0 0 11.43,2.84 32.94,32.94 0 0 0 10.47,-1.58 q 4.76,-1.59 9,-7.09 l 0.21,-0.21 0.42,0.21 24.54,10.81 -0.43,0.43 a 52.77,52.77 0 0 1 -19.35,16.63 54,54 0 0 1 -24.85,6 54.8,54.8 0 0 1 -21.48,-4.23 54.14,54.14 0 0 1 -17.45,-11.64 55.81,55.81 0 0 1 -11.74,-17.34 54.36,54.36 0 0 1 0,-42.52 55.07,55.07 0 0 1 29.19,-29.08 53.65,53.65 0 0 1 21.47,-4.35 z"
     id="path18"
     inkscape:connector-curvature="0"
     style="fill:#ac358c" />
  <path
     class="cls-2"
     d="m 650,217.85 v 105.76 h -27.71 v -53 a 28.18,28.18 0 0 0 -2.29,-11.46 29.79,29.79 0 0 0 -27.28,-17.82 28,28 0 0 0 -11.43,2.34 32.57,32.57 0 0 0 -9.41,6.26 28,28 0 0 0 -6.45,9.34 29,29 0 0 0 -2.33,11.57 27.68,27.68 0 0 0 2.33,11.25 29.48,29.48 0 0 0 6.45,9.34 31.55,31.55 0 0 0 9.41,6.37 28,28 0 0 0 11.43,2.33 24.88,24.88 0 0 0 11.21,-2.32 h 0.21 v 0.42 l 10.58,18.83 -0.22,0.21 q -10.37,8 -25.59,8 a 53.4,53.4 0 0 1 -21.15,-4.23 54.35,54.35 0 0 1 -17.35,-11.64 55.81,55.81 0 0 1 -11.74,-17.34 54.36,54.36 0 0 1 0,-42.52 55.34,55.34 0 0 1 29.09,-29.08 52.29,52.29 0 0 1 21.15,-4.34 42.8,42.8 0 0 1 19.25,4.09 40.21,40.21 0 0 1 14.17,11.85 v -14.21 z"
     id="path20"
     inkscape:connector-curvature="0"
     style="fill:#ac358c" />
  <rect
     class="cls-2"
     x="100"
     y="384.95001"
     width="366.67001"
     height="8.8400002"
     id="rect22"
     style="fill:#ac358c" />
  <rect
     class="cls-2"
     x="100"
     y="352.29999"
     width="550"
     height="8.8400002"
     id="rect24"
     style="fill:#ac358c" />
  <rect
     class="cls-2"
     x="100"
     y="417.60999"
     width="183.33"
     height="8.8400002"
     id="rect26"
     style="fill:#ac358c" />
</svg>
