<?xml version="1.0" encoding="UTF-8" standalone="no"?>
<svg
   xmlns:dc="http://purl.org/dc/elements/1.1/"
   xmlns:cc="http://creativecommons.org/ns#"
   xmlns:rdf="http://www.w3.org/1999/02/22-rdf-syntax-ns#"
   xmlns:svg="http://www.w3.org/2000/svg"
   xmlns="http://www.w3.org/2000/svg"
   xmlns:sodipodi="http://sodipodi.sourceforge.net/DTD/sodipodi-0.dtd"
   xmlns:inkscape="http://www.inkscape.org/namespaces/inkscape"
   id="Layer_1"
   data-name="Layer 1"
   viewBox="0 0 750 359"
   version="1.1"
   sodipodi:docname="alinea.svg"
   width="750"
   height="359"
   inkscape:version="0.92.3 (2405546, 2018-03-11)">
  <metadata
     id="metadata31">
    <rdf:RDF>
      <cc:Work
         rdf:about="">
        <dc:format>image/svg+xml</dc:format>
        <dc:type
           rdf:resource="http://purl.org/dc/dcmitype/StillImage" />
        <dc:title>alinea</dc:title>
      </cc:Work>
    </rdf:RDF>
  </metadata>
  <sodipodi:namedview
     pagecolor="#ffffff"
     bordercolor="#666666"
     borderopacity="1"
     objecttolerance="10"
     gridtolerance="10"
     guidetolerance="10"
     inkscape:pageopacity="0"
     inkscape:pageshadow="2"
     inkscape:window-width="1920"
     inkscape:window-height="981"
     id="namedview29"
     showgrid="false"
     inkscape:zoom="0.295"
     inkscape:cx="256.35594"
     inkscape:cy="250"
     inkscape:window-x="0"
     inkscape:window-y="30"
     inkscape:window-maximized="1"
     inkscape:current-layer="Layer_1" />
  <defs
     id="defs4">
    <style
       id="style2">.cls-1{fill:#f0e6d4;}.cls-2{fill:#ac358c;}</style>
  </defs>
  <title
     id="title6">alinea</title>
  <g
     id="g27"
     style="fill:#ffffff"
     transform="translate(4,-3)">
    <path
       style="fill:#ffffff;stroke-width:1.29583979"
       inkscape:connector-curvature="0"
       id="path10"
       d="M 166.57273,74.431819 V 211.47983 h -35.89476 v -68.6795 a 36.503806,36.503806 0 0 0 -3.00635,-14.83737 38.577149,38.577149 0 0 0 -20.73344,-20.20214 37.968105,37.968105 0 0 0 -14.668904,-2.88973 36.128012,36.128012 0 0 0 -14.72074,3.01931 41.855624,41.855624 0 0 0 -12.193852,8.11196 36.283513,36.283513 0 0 0 -8.371124,12.10314 37.579353,37.579353 0 0 0 -3.006349,14.99287 35.855886,35.855886 0 0 0 3.006349,14.5782 38.240231,38.240231 0 0 0 8.371124,12.10314 40.546826,40.546826 0 0 0 12.193852,8.2545 36.115054,36.115054 0 0 0 14.79849,3.01931 32.201618,32.201618 0 0 0 14.526364,-3.00635 h 0.27213 v 0.54425 l 13.70998,24.40066 -0.27213,0.27213 q -13.4249,10.36672 -33.173493,10.36672 a 69.288552,69.288552 0 0 1 -27.407011,-5.4814 70.234515,70.234515 0 0 1 -22.469861,-15.08358 71.880231,71.880231 0 0 1 -15.213159,-22.46986 70.286348,70.286348 0 0 1 0,-55.09911 A 71.750647,71.750647 0 0 1 60.002866,77.81396 67.850169,67.850169 0 0 1 87.409877,72.190016 55.461941,55.461941 0 0 1 112.35479,77.49 52.105716,52.105716 0 0 1 130.67797,92.897535 V 74.431819 Z"
       class="cls-2" />
    <path
       style="fill:#ffffff;stroke-width:1.29583979"
       inkscape:connector-curvature="0"
       id="path12"
       d="M 222.21609,19.617797 V 211.47983 h -36.45197 l 0.27212,-191.862033 z"
       class="cls-2" />
    <path
       style="fill:#ffffff;stroke-width:1.29583979"
       inkscape:connector-curvature="0"
       id="path14"
       d="m 237.98646,19.617797 h 36.45197 v 32.072034 h -36.45197 z m 0,191.862033 V 74.431819 h 36.45197 V 211.47983 Z"
       class="cls-2" />
    <path
       style="fill:#ffffff;stroke-width:1.29583979"
       inkscape:connector-curvature="0"
       id="path16"
       d="M 411.30503,111.66129 A 52.675886,52.675886 0 0 0 401.44369,90.279939 Q 387.46157,72.138182 354.57316,72.138182 a 54.282727,54.282727 0 0 0 -26.27963,6.232989 V 74.379985 H 291.01222 V 211.47983 h 37.28131 V 102.20166 l 3.79681,6.71245 0.28509,0.27213 v -0.27213 a 39.341695,39.341695 0 0 1 17.80483,-4.10781 q 10.14643,0 15.62783,3.01931 a 18.051048,18.051048 0 0 1 7.9435,8.38408 34.391587,34.391587 0 0 1 2.88972,12.36232 q 0.40171,7.02345 0.40171,14.70778 V 211.428 h 37.28131 v -67.97975 a 142.14066,142.14066 0 0 0 -3.0193,-31.78696 z"
       class="cls-2" />
    <path
       style="fill:#ffffff;stroke-width:1.29583979"
       inkscape:connector-curvature="0"
       id="path18"
       d="m 497.69866,72.241849 a 67.850169,67.850169 0 0 1 27.40701,5.623945 71.750647,71.750647 0 0 1 37.68302,37.683016 68.511048,68.511048 0 0 1 5.62395,27.67914 71.037935,71.037935 0 0 1 -1.64572,15.35571 l -0.27213,0.54425 h -69.62547 l -17.54567,-27.95126 h 52.0798 a 40.857827,40.857827 0 0 0 -12.7381,-18.91927 31.799908,31.799908 0 0 0 -20.96669,-7.39924 33.354915,33.354915 0 0 0 -13.98211,3.00634 36.205763,36.205763 0 0 0 -11.37747,8.06013 36.801849,36.801849 0 0 0 -7.54179,12.01244 41.065162,41.065162 0 0 0 -2.73422,15.16132 37.35906,37.35906 0 0 0 2.46209,12.9584 39.795239,39.795239 0 0 0 7.12712,12.15498 41.091079,41.091079 0 0 0 11.23493,9.14862 29.726564,29.726564 0 0 0 14.81145,3.68019 42.684961,42.684961 0 0 0 13.56744,-2.04743 q 6.1682,-2.06038 11.66256,-9.1875 l 0.27213,-0.27213 0.54425,0.27213 31.79991,14.00803 -0.55721,0.55721 a 68.381464,68.381464 0 0 1 -25.0745,21.54981 69.975347,69.975347 0 0 1 -32.20162,7.77504 71.012018,71.012018 0 0 1 -27.83464,-5.4814 70.156764,70.156764 0 0 1 -22.6124,-15.08358 72.320817,72.320817 0 0 1 -15.21316,-22.46986 70.441849,70.441849 0 0 1 0,-55.09911 71.361895,71.361895 0 0 1 37.82556,-37.683018 69.521803,69.521803 0 0 1 27.82168,-5.636903 z"
       class="cls-2" />
    <path
       style="fill:#ffffff;stroke-width:1.29583979"
       inkscape:connector-curvature="0"
       id="path20"
       d="M 729.35593,74.431819 V 211.47983 h -35.90772 v -68.6795 a 36.516764,36.516764 0 0 0 -2.96747,-14.85033 38.603066,38.603066 0 0 0 -35.35051,-23.09186 36.283513,36.283513 0 0 0 -14.81144,3.03226 42.205501,42.205501 0 0 0 -12.19386,8.11196 36.283513,36.283513 0 0 0 -8.35816,12.10314 37.579353,37.579353 0 0 0 -3.01931,14.99287 35.868844,35.868844 0 0 0 3.01931,14.5782 38.201356,38.201356 0 0 0 8.35816,12.10314 40.883744,40.883744 0 0 0 12.19386,8.2545 36.283513,36.283513 0 0 0 14.81144,3.01931 32.240493,32.240493 0 0 0 14.52637,-3.00635 h 0.27212 v 0.54425 l 13.70999,24.40066 -0.28509,0.27213 q -13.43786,10.36672 -33.16054,10.36672 a 69.197843,69.197843 0 0 1 -27.40701,-5.4814 70.428891,70.428891 0 0 1 -22.48282,-15.08358 72.320817,72.320817 0 0 1 -15.21316,-22.46986 70.441849,70.441849 0 0 1 0,-55.09911 71.711772,71.711772 0 0 1 37.69598,-37.68302 67.759461,67.759461 0 0 1 27.40701,-5.623944 A 55.461941,55.461941 0 0 1 675.138,77.49 52.105716,52.105716 0 0 1 693.50005,92.845701 V 74.431819 Z"
       class="cls-2" />
    <rect
       style="fill:#ffffff;stroke-width:1.29583979"
       id="rect22"
       height="11.455224"
       width="475.14557"
       y="290.96664"
       x="16.644068"
       class="cls-2" />
    <rect
       style="fill:#ffffff;stroke-width:1.29583979"
       id="rect24"
       height="11.455224"
       width="712.71185"
       y="248.65746"
       x="16.644068"
       class="cls-2" />
    <rect
       style="fill:#ffffff;stroke-width:1.29583979"
       id="rect26"
       height="11.455224"
       width="237.5663"
       y="333.28876"
       x="16.644068"
       class="cls-2" />
  </g>
</svg>
