<svg id="Layer_1" data-name="Layer 1" xmlns="http://www.w3.org/2000/svg" viewBox="0 0 800 800"><defs><style>.cls-1{fill:#ac358c;}.cls-2{fill:#f0e6d4;}</style></defs><title>alinea</title><rect class="cls-1" x="25" y="150" width="750" height="500" rx="30"/><path class="cls-2" d="M240.7,367.85V473.61H213v-53a28.17,28.17,0,0,0-2.32-11.45,29.77,29.77,0,0,0-16-15.59,29.3,29.3,0,0,0-11.32-2.23A27.88,27.88,0,0,0,172,393.67a32.3,32.3,0,0,0-9.41,6.26,28,28,0,0,0-6.46,9.34,29,29,0,0,0-2.32,11.57,27.67,27.67,0,0,0,2.32,11.25,29.51,29.51,0,0,0,6.46,9.34A31.29,31.29,0,0,0,172,447.8a27.87,27.87,0,0,0,11.42,2.33,24.85,24.85,0,0,0,11.21-2.32h.21v.42l10.58,18.83-.21.21q-10.36,8-25.6,8a53.47,53.47,0,0,1-21.15-4.23,54.2,54.2,0,0,1-17.34-11.64,55.47,55.47,0,0,1-11.74-17.34,54.24,54.24,0,0,1,0-42.52,55.37,55.37,0,0,1,29.08-29.08,52.36,52.36,0,0,1,21.15-4.34,42.8,42.8,0,0,1,19.25,4.09A40.21,40.21,0,0,1,213,382.1V367.85Z"/><path class="cls-2" d="M283.64,325.55V473.61H255.51l.21-148.06Z"/><path class="cls-2" d="M295.81,325.55h28.13V350.3H295.81Zm0,148.06V367.85h28.13V473.61Z"/><path class="cls-2" d="M429.56,396.58a40.65,40.65,0,0,0-7.61-16.5q-10.79-14-36.17-14a41.89,41.89,0,0,0-20.28,4.81v-3.08H336.73V473.61H365.5V389.28l2.93,5.18.22.21v-.21a30.36,30.36,0,0,1,13.74-3.17q7.83,0,12.06,2.33a13.93,13.93,0,0,1,6.13,6.47,26.54,26.54,0,0,1,2.23,9.54q.31,5.42.31,11.35v52.59h28.77V421.11A109.69,109.69,0,0,0,429.56,396.58Z"/><path class="cls-2" d="M496.23,366.16a52.36,52.36,0,0,1,21.15,4.34,55.37,55.37,0,0,1,29.08,29.08,52.87,52.87,0,0,1,4.34,21.36,54.82,54.82,0,0,1-1.27,11.85l-.21.42H495.59l-13.54-21.57h40.19a31.53,31.53,0,0,0-9.83-14.6,24.54,24.54,0,0,0-16.18-5.71,25.74,25.74,0,0,0-10.79,2.32,27.94,27.94,0,0,0-8.78,6.22,28.4,28.4,0,0,0-5.82,9.27,31.69,31.69,0,0,0-2.11,11.7,28.83,28.83,0,0,0,1.9,10,30.71,30.71,0,0,0,5.5,9.38,31.71,31.71,0,0,0,8.67,7.06,22.94,22.94,0,0,0,11.43,2.84,32.94,32.94,0,0,0,10.47-1.58q4.76-1.59,9-7.09l.21-.21.42.21,24.54,10.81-.43.43a52.77,52.77,0,0,1-19.35,16.63,54,54,0,0,1-24.85,6,54.8,54.8,0,0,1-21.48-4.23,54.14,54.14,0,0,1-17.45-11.64,55.81,55.81,0,0,1-11.74-17.34,54.36,54.36,0,0,1,0-42.52,55.07,55.07,0,0,1,29.19-29.08A53.65,53.65,0,0,1,496.23,366.16Z"/><path class="cls-2" d="M675,367.85V473.61H647.29v-53A28.18,28.18,0,0,0,645,409.15a29.79,29.79,0,0,0-27.28-17.82,28,28,0,0,0-11.43,2.34,32.57,32.57,0,0,0-9.41,6.26,28,28,0,0,0-6.45,9.34,29,29,0,0,0-2.33,11.57,27.68,27.68,0,0,0,2.33,11.25,29.48,29.48,0,0,0,6.45,9.34,31.55,31.55,0,0,0,9.41,6.37,28,28,0,0,0,11.43,2.33,24.88,24.88,0,0,0,11.21-2.32h.21v.42l10.58,18.83-.22.21q-10.37,8-25.59,8a53.4,53.4,0,0,1-21.15-4.23,54.35,54.35,0,0,1-17.35-11.64,55.81,55.81,0,0,1-11.74-17.34,54.36,54.36,0,0,1,0-42.52,55.34,55.34,0,0,1,29.09-29.08,52.29,52.29,0,0,1,21.15-4.34,42.8,42.8,0,0,1,19.25,4.09,40.21,40.21,0,0,1,14.17,11.85V367.85Z"/><rect class="cls-2" x="125" y="534.95" width="366.67" height="8.84"/><rect class="cls-2" x="125" y="502.3" width="550" height="8.84"/><rect class="cls-2" x="125" y="567.61" width="183.33" height="8.84"/></svg>